<svg id="Layer_1" data-name="Layer 1" xmlns="http://www.w3.org/2000/svg" viewBox="0 0 250 250"><defs><style>.cls-1{fill:#00529a;}.cls-2{fill:#ed1c2e;}</style></defs><title>aaa-insurance-logo-color</title><path class="cls-1" d="M73.87,159.61H80l-6.11,29h-6.1Z"/><path class="cls-1" d="M82.65,170.3a9.6,9.6,0,0,0,.38-3.06h5.34L88,169.15h0a9,9,0,0,1,6.11-2.67A6.41,6.41,0,0,1,101,172.4a5,5,0,0,1,0,.95,16.27,16.27,0,0,1-.76,4.58l-1.91,10.68H92.57l1.91-9.92a19.24,19.24,0,0,0,.76-4.58,2.82,2.82,0,0,0-2.57-3.05,1.93,1.93,0,0,0-.48,0c-3.82,0-5.34,3.43-6.11,6.87l-2.29,10.68H78.07Z"/><path class="cls-1" d="M119.66,171.82a20.08,20.08,0,0,0-4.58-1.14c-1.53,0-3.82.38-3.82,2.29,0,2.67,7.25,3.81,7.25,8.77,0,5.72-5,7.25-9.53,7.25a17.72,17.72,0,0,1-6.49-1.14l1.14-4.58a11,11,0,0,0,5.35,1.52c1.9,0,3.81-.76,3.81-2.29,0-3.43-7.25-3.81-7.25-9.15s5-6.87,9.16-6.87a33.81,33.81,0,0,1,6.1.76Z"/><path class="cls-1" d="M141.41,185.56a9.54,9.54,0,0,0-.39,3.05h-5.34l.38-1.91h0a8.94,8.94,0,0,1-6.1,2.67,6.41,6.41,0,0,1-6.87-5.91,7.69,7.69,0,0,1,0-1,16.52,16.52,0,0,1,.77-4.57l2.28-10.31h5.73L130,177.54a18.75,18.75,0,0,0-.76,4.58,2.83,2.83,0,0,0,2.57,3.06h.48c3.81,0,5.34-3.44,6.1-6.87l2.29-10.69h5.73Z"/><path class="cls-1" d="M149.8,169.91c0-.76.38-1.9.38-3h5.34l-.76,4.2h0a8.15,8.15,0,0,1,6.49-4.58,4.88,4.88,0,0,1,2.29.38l-1.15,5.34a4.86,4.86,0,0,0-2.29-.38c-3.81,0-5.72,3.44-6.48,6.87l-1.91,9.92H146Z"/><path class="cls-1" d="M175.36,185.18h0A8.5,8.5,0,0,1,168.5,189a5.92,5.92,0,0,1-6.47-5.31,7,7,0,0,1,0-.79c0-7.25,8-7.63,13-7.63h1.91v-1.91c0-2.29-2.29-2.67-4.2-2.67a20.1,20.1,0,0,0-6.87,1.52l.77-4.58a24.09,24.09,0,0,1,7.25-1.14c4.19,0,8.39,1.53,8.39,6.49,0,3.05-2.29,11.44-2.67,15.26h-5Zm-5.72,0c4.2,0,5.34-3.06,6.49-6.49h-1.91c-2.67,0-7.25.38-7.25,4.2A2.53,2.53,0,0,0,169.64,185.18Z"/><path class="cls-1" d="M188,170.3a9.6,9.6,0,0,0,.39-3.06h5.34v1.91h0a9,9,0,0,1,6.1-2.67,6.42,6.42,0,0,1,6.87,5.92,7.53,7.53,0,0,1,0,.95,16.64,16.64,0,0,1-.76,4.58l-2.29,10.3h-5.73l1.91-9.92a18.75,18.75,0,0,0,.76-4.58,2.82,2.82,0,0,0-2.57-3,1.93,1.93,0,0,0-.48,0c-3.81,0-5.34,3.43-6.1,6.86l-2.29,10.69h-5.72Z"/><path class="cls-1" d="M226.49,172.2a7.6,7.6,0,0,0-4.2-1.14,7.36,7.36,0,0,0-6.88,7.81c0,.07,0,.13,0,.2,0,2.67.77,5.72,4.58,5.72a10,10,0,0,0,4.58-1.14l-.38,4.58a12.16,12.16,0,0,1-5.34,1.14,8.81,8.81,0,0,1-9.16-8.45c0-.24,0-.47,0-.7a12.45,12.45,0,0,1,11.49-13.33c.37,0,.73,0,1.1,0a26.41,26.41,0,0,1,5.73.76Z"/><path class="cls-1" d="M233.36,179.45c0,3.82,2.29,5.34,6.1,5.34a18,18,0,0,0,6.49-1.52l-.77,4.58a21.64,21.64,0,0,1-6.86,1.14c-6.11,0-10.3-3.05-10.3-9.54a13,13,0,0,1,12.2-13c5.35,0,8.78,2.67,8.78,8,0,1.53-.38,3-.38,5Zm10.3-3.81v-1.53a3.05,3.05,0,0,0-2.62-3.43,2.82,2.82,0,0,0-.82,0c-3.43,0-5,1.9-6.1,5Z"/><path class="cls-1" d="M192.15,65.37c-5.72-9.54-34-4.58-72.49,13.36l-.76.38.38.38a66.47,66.47,0,0,1,5.34,4.58l.38.38h.38c28.62-12.21,49.6-15.26,53.8-8,5,8.77-14.88,30.14-48.08,52.65l-.38.38,1.15,1.15.38-.39C173.84,102.76,198.26,76.44,192.15,65.37Z"/><path class="cls-1" d="M58.23,166.48c-21.37,7.63-36.63,8.39-39.68,2.67s3.05-15.26,16.79-28.23l.38-.38L31.9,139l-3-1.53h-.76c-16.79,15.65-24,27.86-20.22,34.34,4.58,7.63,23.27,6.11,51.12-4.2l.39-.38Z"/><path class="cls-2" d="M68.15,63.08C31.14,63.08,1,81.78,1,104.67s30.14,41.59,67.15,41.59,67.15-18.7,67.15-41.59S104.78,63.08,68.15,63.08Zm-11.83,58h16c0,.76,5.34,19.07,5.72,20.22a94,94,0,0,1-9.92.76,81.08,81.08,0,0,1-16.79-1.91C51.36,139.39,56.32,121.84,56.32,121.08Zm1.53-5.73c.38-1.14,5.72-20.6,6.49-23.27.76,2.67,6.1,22.13,6.48,23.27Zm6.49-47.69c-.39,1.15-12.21,43.88-13,46.55C50.6,111.54,39.54,73.77,39.54,73A75.65,75.65,0,0,1,64.34,67.66Zm6.1,0a78,78,0,0,1,25.18,5c-.38.76-10.68,38.92-11.44,41.59C83.41,111.54,70.82,68.81,70.44,67.66Zm19.84,47.69c.38-1.14,5.72-20.6,6.1-23.27.77,2.67,6.11,22.13,6.49,23.27ZM87.61,126c0-.38,1.14-4.2,1.14-5h16a88.26,88.26,0,0,0,2.67,9.54,55.12,55.12,0,0,1-16.41,8C91,137.86,87.61,126.42,87.61,126Zm30.52-6.11c-.38-1.91-11.44-39.3-12.21-41.59,10.69,6.87,16.79,16.79,16.79,26.71A28.22,28.22,0,0,1,118.13,119.93ZM44.5,138.63A52.9,52.9,0,0,1,22.75,126c0-.38,1.14-4.2,1.14-4.58h16C39.92,121.84,44.11,137.1,44.5,138.63ZM25.8,115.35c.38-1.14,5.72-20.6,6.49-23.27.76,2.67,6.1,22.13,6.48,23.27Zm3.05-36.62c-.76,2.29-10.68,38.91-11.06,40.82a26,26,0,0,1-4.58-14.5C13.21,95.13,18.93,86,28.85,78.73Z"/></svg>