<svg id="Layer_1" data-name="Layer 1" xmlns="http://www.w3.org/2000/svg" viewBox="0 0 250 250"><defs><style>.cls-1{fill:#fff;}</style></defs><title>aaa-logo-white</title><path class="cls-1" d="M247.8,56.26c-7.36-12.27-43.54-6-93,16.95-16-12.13-40.29-19.91-67.13-19.91C39.92,53.3,1,77.44,1,107c0,17.44,13.56,33,34.5,42.81C14.17,169.79,5,185.38,9.87,193.7c5.91,9.85,30.05,7.88,66-5.42l.49-.49-1.48-1c-27.58,9.85-47.29,10.84-51.23,3.45s3.94-19.7,21.67-36.45a129.25,129.25,0,0,0,42.37,6.89c47.78,0,86.7-24.14,86.7-53.69,0-9.68-4.24-18.77-11.59-26.63,36.32-15.32,62.88-19.08,68.24-9.83,6.41,11.33-19.21,38.92-62.07,68l-.49.5,1.48,1.47.49-.49C224.15,104.53,255.68,70.54,247.8,56.26ZM132.53,120.79H116.27c.49-1.48,7.39-26.6,7.88-30.05C125.14,94.19,132,119.31,132.53,120.79ZM82.77,59.21C82.28,60.69,67,115.86,66,119.31c-1-3.45-15.28-52.22-15.28-53.2A97.83,97.83,0,0,1,82.77,59.21Zm8.38,61.58H74.4c.49-1.48,7.39-26.6,8.37-30.05C83.76,94.19,90.66,119.31,91.15,120.79Zm-41.38,0H33c.49-1.48,7.39-26.6,8.37-30.05C42.38,94.19,49.28,119.31,49.77,120.79Zm-33-13.3c0-12.81,7.39-24.63,20.2-34-1,3-13.79,50.25-14.28,52.71A33.58,33.58,0,0,1,16.76,107.49Zm12.32,27.09c0-.49,1.48-5.42,1.48-5.91H51.25c0,.49,5.42,20.2,5.91,22.17A68.22,68.22,0,0,1,29.08,134.58ZM87.7,155.27A103.87,103.87,0,0,1,66,152.81c0-1,6.4-23.65,6.4-24.63H93.12c0,1,6.9,24.63,7.39,26.11A122.08,122.08,0,0,1,87.7,155.27Zm3-96.06a100.48,100.48,0,0,1,32.51,6.41c-.49,1-13.79,50.24-14.78,53.69C107.4,115.86,91.15,60.69,90.66,59.21Zm26.6,91.63c0-1-4.44-15.76-4.44-16.26s1.48-5.42,1.48-6.4H135a114.06,114.06,0,0,0,3.45,12.31A70.7,70.7,0,0,1,117.26,150.84Zm35-24.14C151.74,124.24,137.45,76,136.47,73c13.79,8.86,21.67,21.67,21.67,34.48A36.27,36.27,0,0,1,152.23,126.7Z"/></svg>