<svg id="Layer_1" data-name="Layer 1" xmlns="http://www.w3.org/2000/svg" viewBox="0 0 250 250"><defs><style>.cls-1{fill:#00529a;}.cls-2{fill:#ed1c2e;}</style></defs><title>aaa-logo-color</title><path class="cls-1" d="M247.77,56.34c-7.25-12.58-43.86-5.72-93.45,17.17l-.76.38.76.38a35.8,35.8,0,0,1,6.87,6.1l.38.38H162c37-15.63,64.46-19.83,69.8-10.29,6.48,11.06-19.07,39.28-62.17,68.27l-.38.38,1.14,1.14.38-.38C224.12,104.4,255.78,70.07,247.77,56.34Z"/><path class="cls-1" d="M74.61,186.4c-27.84,9.92-46.91,11.06-51.11,3.43-3.81-6.48,3.82-19.83,21.36-36.23l.76-.76-4.95-1.91a43.84,43.84,0,0,1-4.2-1.91h-.38l-.38.39C14,169.62,4.43,185.26,9.39,193.65c5.72,9.91,29.75,8,66-5.72l.77-.38L75,186Z"/><path class="cls-2" d="M87.58,53.29C39.9,53.29,1,77.32,1,107.07s38.9,53.78,86.58,53.78,86.58-24,86.58-53.78S135.25,53.29,87.58,53.29ZM72.7,128.05H93.3c.38.76,6.86,24.79,7.25,25.93-4.2.38-8.78.77-13,.77a105.66,105.66,0,0,1-21.74-2.29C66.22,151.69,72.32,128.81,72.7,128.05Zm1.91-7.63c.38-1.15,7.25-26.32,8-29.75.76,3.43,8,28.6,8.39,29.75ZM83,59c-.38,1.53-15.64,56.83-16.4,60.26C65.84,116.22,51.35,67,51,65.88A106.43,106.43,0,0,1,83,59Zm7.63,0a99.91,99.91,0,0,1,32.42,6.49c-.38,1.14-13.73,50.34-14.88,53.77C107.41,115.84,91,60.54,90.63,59Zm25.94,61.41c.38-1.15,7.24-26.32,8-29.75.77,3.43,8,28.6,8.4,29.75Zm-3.82,14.11a59.07,59.07,0,0,1,1.91-6.48h20.59c.39.76,3.06,11.44,3.44,12.2a82.69,82.69,0,0,1-21,10.3C117,149.41,112.75,134.91,112.75,134.53ZM152,126.14c-.77-2.29-14.88-51.11-15.64-53.78,13.73,9.16,21.74,21.36,21.74,34.71C158.14,113.94,155.85,120,152,126.14ZM57.45,150.55c-11.44-3.81-21-9.15-28.23-16.4,0-.38,1.53-5.34,1.53-5.72h20.6C51.35,128.81,57.07,149,57.45,150.55ZM32.66,120.42c.38-1.15,7.24-26.32,8-29.75.76,3.43,8,28.6,8,29.75Zm4.57-46.91c-.76,2.67-13.73,50.34-14.49,52.63A34.86,34.86,0,0,1,17,107.07C17,94.48,24.27,82.66,37.23,73.51Z"/></svg>