<svg id="Layer_1" data-name="Layer 1" xmlns="http://www.w3.org/2000/svg" viewBox="0 0 250 250"><defs><style>.cls-1{fill:#fff;}</style></defs><title>as-card-logo</title><path class="cls-1" d="M132.75,125a7.75,7.75,0,1,1-7.75-7.75A7.75,7.75,0,0,1,132.75,125Zm-79-32.2H57l1-3.06h5.48l1,3.06H67.8L62.54,77.93H59Zm38.67-8.39-3.09-6.48H85.63l5.14,9.3V92.8h3.11V87.23l5-9.3H95.33Zm32.74-6.48H118.7V92.8h6.42a5.39,5.39,0,0,0,5-2.77,10,10,0,0,0,1.19-5,11.43,11.43,0,0,0-.29-2.46,6.45,6.45,0,0,0-1.06-2.4,4.85,4.85,0,0,0-2.53-1.89A7.76,7.76,0,0,0,125.12,77.93Zm38.24,0H152.45V92.8h11.27V90.13h-8.23V86.3h7.23V83.72h-7.23V80.56h7.87ZM183.67,92.8h2.89V82.25l6.06,10.55h3.11V77.93h-2.9V88.3l-5.9-10.37h-3.26Zm-64.7,77h2.9V159.23l6,10.56H131V154.91h-2.9v10.37l-5.9-10.37H119Zm-19.6-7.46c0-2.73-.75-4.77-2.25-6.14a7.73,7.73,0,0,0-9.75,0c-1.5,1.37-2.26,3.41-2.26,6.14a8,8,0,0,0,2.26,6.13,7.7,7.7,0,0,0,9.75,0A8,8,0,0,0,99.37,162.33Zm-45.65-7.42v2.64H58.2v12.24h3.12V157.55h4.45v-2.64Zm32.5-37.35v2.64h4.47v12.24h3.13V120.2h4.45v-2.64ZM53.48,127.87a4.4,4.4,0,0,0,1.68,3.65,7.3,7.3,0,0,0,4.62,1.33,6.63,6.63,0,0,0,4.45-1.35,4.28,4.28,0,0,0,1.58-3.39,3.61,3.61,0,0,0-1.33-3A6.38,6.38,0,0,0,61.91,124l-2.61-.62a8.9,8.9,0,0,1-2-.62,1.26,1.26,0,0,1-.72-1.19,1.53,1.53,0,0,1,.73-1.35,3.57,3.57,0,0,1,2-.48,4.09,4.09,0,0,1,1.85.37,2.15,2.15,0,0,1,1.2,1.91h3a4.46,4.46,0,0,0-1.77-3.62,6.62,6.62,0,0,0-4.06-1.25,6.22,6.22,0,0,0-4.32,1.33,4.26,4.26,0,0,0-1.47,3.32A3.59,3.59,0,0,0,55.23,125a9.5,9.5,0,0,0,3.26,1.14l1.61.36a7,7,0,0,1,2.06.69,1.28,1.28,0,0,1,.65,1.14,1.73,1.73,0,0,1-1.33,1.73,5.69,5.69,0,0,1-1.82.24,3.28,3.28,0,0,1-2.65-.92,2.94,2.94,0,0,1-.56-1.52Zm130.29,4.57h3v-5l1.5-1.52,4.58,6.5h4l-6.42-8.76,6.11-6.12h-4l-5.75,6.13v-6.13h-3Zm-32.23-7.38a8.31,8.31,0,0,0,1.82,5.67,6.33,6.33,0,0,0,5,2.06,5.94,5.94,0,0,0,4.21-1.53,6.66,6.66,0,0,0,2-3.95h-3.09a4.61,4.61,0,0,1-.77,1.72,2.91,2.91,0,0,1-2.43,1.07,3.17,3.17,0,0,1-2.58-1.25,5.88,5.88,0,0,1-1-3.74,6.67,6.67,0,0,1,1-3.87,3.37,3.37,0,0,1,5.08-.4,4.09,4.09,0,0,1,.76,1.61h3.11a5.22,5.22,0,0,0-1-2.77,6.92,6.92,0,0,0-10-.63A8.23,8.23,0,0,0,151.54,125.06Zm1.35,41.17a1.57,1.57,0,1,0,1.56,1.57A1.57,1.57,0,0,0,152.89,166.23Zm3.72-2.87a6.85,6.85,0,0,0,1.51,4.71,5.24,5.24,0,0,0,4.14,1.72,4.91,4.91,0,0,0,3.5-1.27,5.58,5.58,0,0,0,1.7-3.29h-2.57a3.75,3.75,0,0,1-.64,1.43,2.4,2.4,0,0,1-2,.9,2.64,2.64,0,0,1-2.14-1,4.88,4.88,0,0,1-.84-3.12,5.54,5.54,0,0,1,.79-3.21,2.8,2.8,0,0,1,4.23-.33,3.35,3.35,0,0,1,.63,1.34h2.59a4.56,4.56,0,0,0-.85-2.31,5.79,5.79,0,0,0-8.32-.52A6.85,6.85,0,0,0,156.61,163.36Zm25.18-.12a6.56,6.56,0,0,0-1.87-5.1,6.42,6.42,0,0,0-8.1,0,6.56,6.56,0,0,0-1.88,5.1,6.68,6.68,0,0,0,1.88,5.1,6.38,6.38,0,0,0,8.1,0A6.68,6.68,0,0,0,181.79,163.24Zm8.8,3.56-2.25-9.72h-3.76v12.36H187v-8.36c0-.24,0-.58,0-1s0-.77,0-1l2.33,10.37h2.51l2.34-10.37c0,.23,0,.56,0,1v9.37h2.4V157.08h-3.72ZM125,14.78A110.22,110.22,0,1,0,235.22,125,110.34,110.34,0,0,0,125,14.78M125,1A124,124,0,1,1,1,125,124,124,0,0,1,125,1Z"/></svg>