<svg id="Layer_1" data-name="Layer 1" xmlns="http://www.w3.org/2000/svg" viewBox="0 0 250 58"><defs><style>.cls-1{fill:#fff;}</style></defs><title>ayden-stockton-logo</title><path class="cls-1" d="M12.49,37.82l-6.1,3.1c-2-.67-5.39-3.1-5.39-6.73V22.28l10.25-5.2c2.05.67,5.39,3.1,5.39,6.72v9c0,1.82.86,3.34,2.43,3.63l-2.43,4.48A9,9,0,0,1,12.49,37.82ZM8.25,21.52s-1.86-.06-1.86,2.28v9c0,2,1,3.67,3,3.67,0,0,1.9.05,1.9-2.29v-9C11.25,23.13,10.2,21.52,8.25,21.52Z"/><path class="cls-1" d="M36.91,51.93l-10.29,5.2c-2-.72-5.39-3.1-5.39-6.77V47.73L26.62,45v4c0,2,1.05,3.63,3,3.63,0,0,1.91.09,1.91-2.29V38.44l-4.91,2.48c-2-.67-5.39-3.1-5.39-6.73V19.8l5.39-2.72V32.81c0,2,1.05,3.67,3,3.67,0,0,1.91.05,1.91-2.29V19.8l5.38-2.72Z"/><path class="cls-1" d="M51.56,37.82l-6.15,3.1c-2-.67-5.39-3.1-5.39-6.73V22.28l10.3-5.2V3.59L55.71.87V32.81c0,1.86.81,3.34,2.43,3.63l-2.43,4.48A9,9,0,0,1,51.56,37.82ZM47.31,21.56s-1.9-.1-1.9,2.24v9c0,2,1.05,3.67,3,3.67,0,0,1.91.05,1.91-2.29v-9C50.32,23.13,49.27,21.56,47.31,21.56Z"/><path class="cls-1" d="M65.68,31.53v1.28c0,2,1,3.67,3,3.67a2.32,2.32,0,0,0,.72-.14L75.93,33v2.72l-10.25,5.2c-2.05-.67-5.38-3.1-5.38-6.73V22.28l10.24-5.2c2,.67,5.39,3.05,5.39,6.68v2.57Zm4.86-6.35c0-2.05-1-3.66-3-3.66,0,0-1.91-.06-1.91,2.28v5l4.86-2.48Z"/><path class="cls-1" d="M95.68,23.85V38.2L90.3,40.92V25.18c0-2-1-3.62-3-3.62,0,0-1.86-.1-1.86,2.24V38.2L80,40.92V25.18c0-1.81-.85-3.28-2.43-3.57L80,17.08a9.45,9.45,0,0,1,4.15,3.1l6.11-3.1C92.35,17.8,95.68,20.18,95.68,23.85Z"/><path class="cls-1" d="M129,33.1v2.62l-10.25,5.2c-2-.67-5.34-3.05-5.39-6.68l5.39-2.71v1.28c0,2,1,3.67,3,3.67,0,0,1.86.05,1.86-2.29V29.05l-4.86,2.48a8.29,8.29,0,0,1-2.58-1.44,6.93,6.93,0,0,1-2.81-5.29V22.28l10.25-5.2c2,.67,5.29,3,5.39,6.53l-5.39,2.72V25.18c0-2.05-1-3.66-3-3.66,0,0-1.9-.06-1.9,2.28v5l4.86-2.48a11.15,11.15,0,0,1,2.58,1.43A6.94,6.94,0,0,1,129,33.1Z"/><path class="cls-1" d="M134,34.19V23.7L131.61,25V22.23L134,21V13.27l5.39-2.68-.05,7.68,2.44-1.19v2.67L139.38,21s0,11.2.05,11.87c0,1.81.81,3.29,2.43,3.58l-2.43,4.48C137.38,40.25,134,37.82,134,34.19Z"/><path class="cls-1" d="M160.13,23.8V35.72l-10.25,5.2c-2-.72-5.39-3.1-5.39-6.77V22.23l10.3-5.15C156.79,17.75,160.13,20.18,160.13,23.8Zm-8.35-2.28s-1.9-.1-1.9,2.28v9c0,2,1.05,3.63,3,3.63,0,0,1.91.09,1.91-2.25v-9C154.79,23.13,153.74,21.52,151.78,21.52Z"/><path class="cls-1" d="M173.73,25.18c0-2.05-1-3.66-3-3.66,0,0-1.86-.06-1.86,2.28v9c0,2,1,3.67,2.95,3.67a2.28,2.28,0,0,0,.71-.14L179.11,33v2.72l-10.24,5.2c-2.05-.67-5.39-3.1-5.39-6.73V22.28l10.25-5.2c2,.67,5.24,3,5.38,6.53l-5.38,2.72Z"/><path class="cls-1" d="M195.28,27.76A6.51,6.51,0,0,1,198.1,33V38.2l-5.39,2.72V34.43c0-2-1.05-3.62-3-3.62,0,0-1.86-.09-1.86,2.29v5.1l-5.39,2.72V3.59L187.85.87V19.56l4.86-2.48c2,.67,5.34,3.05,5.39,6.68v2.57Zm-7.43-4v5l4.67-2.39.19-.09V25.18c0-2.05-1.05-3.66-3-3.66C189.71,21.52,187.85,21.46,187.85,23.8Z"/><path class="cls-1" d="M203.16,34.19V23.7L200.73,25V22.23L203.16,21V13.27l5.39-2.68-.05,7.68,2.44-1.19v2.67L208.5,21s0,11.2.05,11.87c0,1.81.81,3.29,2.43,3.58l-2.43,4.48C206.5,40.25,203.16,37.82,203.16,34.19Z"/><path class="cls-1" d="M229.25,23.8V35.72L219,40.92c-2.05-.72-5.39-3.1-5.39-6.77V22.23l10.3-5.15C225.91,17.75,229.25,20.18,229.25,23.8Zm-8.34-2.28S219,21.42,219,23.8v9c0,2,1.05,3.63,3,3.63,0,0,1.91.09,1.91-2.25v-9C223.91,23.13,222.86,21.52,220.91,21.52Z"/><path class="cls-1" d="M249,23.85V38.2l-5.39,2.72V25.18c0-2-1.05-3.62-3-3.62,0,0-1.86-.1-1.86,2.24V38.2l-5.39,2.72V25.18c0-1.81-.86-3.28-2.43-3.57l2.43-4.53a9.5,9.5,0,0,1,4.15,3.1l6.1-3.1C245.66,17.8,249,20.18,249,23.85Z"/></svg>