<svg id="Layer_1" data-name="Layer 1" xmlns="http://www.w3.org/2000/svg" viewBox="0 0 250 134"><defs><style>.cls-1{fill:#fff;}</style></defs><title>ayden-stockton-logo-stacked</title><path class="cls-1" d="M30.39,58.45c-2.61-.49-3.92-2.93-3.92-5.87V38.05c0-5.88-5.39-9.8-8.82-10.94L1,35.6V54.86c0,5.88,5.39,9.8,8.65,10.94h0l10-5.06a14.67,14.67,0,0,0,6.7,5.06h0ZM17.65,54.86c0,3.76-3.1,3.76-3.1,3.76-3.1,0-4.9-2.61-4.9-5.88V38.05c0-3.76,3.11-3.76,3.11-3.76,3.1,0,4.89,2.61,4.89,5.88ZM142.72,27.11h0l-10,5.06a14.72,14.72,0,0,0-6.7-5.06h0l-3.92,7.34h0c2.62.49,3.92,2.94,3.92,5.88V65.8l8.82-4.41V38.05c0-3.76,3.1-3.76,3.1-3.76,3.1,0,4.9,2.61,4.9,5.88V65.64l8.65-4.41V38.05C151.53,32.17,146,28.25,142.72,27.11ZM92.27,58.45c-2.62-.49-3.92-2.93-3.92-5.87V1.31L79.69,5.72V27.11L62.88,35.6V54.86c0,5.88,5.39,9.8,8.65,10.94h0l10-5.06a14.64,14.64,0,0,0,6.69,5.06h0ZM79.53,54.86c0,3.76-3.1,3.76-3.1,3.76-3.1,0-4.9-2.61-4.9-5.88V38.05c0-3.76,3.1-3.76,3.1-3.76,3.11,0,4.9,2.61,4.9,5.88ZM52.92,111.3A14.52,14.52,0,0,0,48.84,109l8.65-4.4c-.16-5.72-5.55-9.47-8.65-10.62l-8,3.92h0l-8.66,4.41v4.08a11.54,11.54,0,0,0,4.57,8.66,14.54,14.54,0,0,0,4.09,2.28h0l-8.66,4.41c0,5.88,5.39,9.8,8.66,10.78h0l8-4.09h0l8.65-4.4v-4.25A10.91,10.91,0,0,0,52.92,111.3Zm-9-10.12c3.1,0,4.9,2.61,4.9,5.88v2l-8,4.09v-8.17C40.84,101,43.94,101.18,43.94,101.18Zm1.79,24.16c-3.1,0-4.89-2.61-4.89-5.88v-2.12h0l8-3.92v8.33c0,3.75-3.11,3.59-3.11,3.59ZM208.67,93.83,192,102.32v19.27c0,5.87,5.39,9.79,8.82,10.94h0L217.49,124V104.77C217.33,98.89,211.94,95,208.67,93.83Zm0,27.76c0,3.75-3.1,3.75-3.1,3.75-3.1,0-4.9-2.61-4.9-5.88V104.77c0-3.76,3.11-3.76,3.11-3.76,3.1,0,4.89,2.62,4.89,5.88ZM98.8,93.83l-16.66,8.49v19.27c0,5.87,5.39,9.79,8.66,10.94h0L107.45,124V104.77C107.45,98.89,102.06,95,98.8,93.83Zm0,27.76c0,3.75-3.11,3.75-3.11,3.75-3.1,0-4.89-2.61-4.89-5.88V104.77c0-3.76,3.1-3.76,3.1-3.76,3.1,0,4.9,2.62,4.9,5.88Zm69.71-17.15v.17c0-5.88-5.39-9.8-8.65-10.78l-8,4.08V68l-8.66,4.4v60.09l8.66-4.41v-8.33c0-3.75,3.1-3.75,3.1-3.75,3.1,0,4.9,2.61,4.9,5.87v10.45l8.65-4.41v-8.49a10.92,10.92,0,0,0-4.57-8.49l4.57-2.28ZM155,101.18c3.1,0,4.9,2.61,4.9,5.88v1.79l-.33.16-7.67,3.92v-8.16C151.86,101,155,101.18,155,101.18ZM240,93.83h0l-10,5.06a14.71,14.71,0,0,0-6.69-5.06h0l-3.92,7.35h0c2.61.49,3.92,2.94,3.92,5.88v25.63l8.81-4.41V104.77c0-3.76,3.11-3.59,3.11-3.59,3.1,0,4.89,2.61,4.89,5.88v25.47l8.82-4.41V104.77C248.84,98.89,243.45,95,240,93.83Zm-51.43,31.35c-2.61-.49-3.92-2.94-3.92-5.88V100.36l3.92-2V94l-3.92,2V83.22L176,87.63v12.73l-3.92,2v4.41l3.92-2v17c0,5.88,5.39,9.8,8.65,10.94h0C184.67,132.53,188.59,125.18,188.59,125.18Zm-110.69,0c-2.62-.49-3.92-2.94-3.92-5.88V100.36l3.92-2V94L74,96V83.22l-8.65,4.41v12.73l-3.92,2v4.41l3.92-2v17c0,5.88,5.38,9.8,8.65,10.94h0C73.82,132.53,77.9,125.18,77.9,125.18ZM138,104.44c-.16-5.71-5.55-9.47-8.65-10.61l-16.66,8.49v19.43c0,5.88,5.39,9.8,8.66,10.94h0L138,124.2v-4.41l-10.61,5.39h0a2.86,2.86,0,0,1-1.15.16c-3.1,0-4.89-2.61-4.89-5.88V104.77c0-3.76,3.1-3.59,3.1-3.59,3.1,0,4.9,2.61,4.9,5.88v2ZM119.86,38.05c0-5.88-5.39-9.8-8.66-10.78L94.39,35.6V54.86c0,5.88,5.39,9.8,8.65,10.94h0l16.65-8.49V52.9l-10.61,5.55h0a2.64,2.64,0,0,1-1.14.17c-3.1,0-4.9-2.61-4.9-5.88V50.62l16.82-8.49ZM103.2,46.21V38.05c0-3.76,3.11-3.76,3.11-3.76,3.1,0,4.89,2.61,4.89,5.88v2Zm-54-14.69V54.86c0,3.76-3.1,3.76-3.1,3.76-3.26,0-4.9-2.61-4.9-5.88V27.11l-8.81,4.41V54.86c0,5.88,5.38,9.8,8.81,10.94l8-4.08V81.15h0c0,3.75-3.1,3.75-3.1,3.75-3.26,0-4.9-2.61-4.9-5.87V72.5l-8.81,4.4v4.25c0,5.88,5.38,9.79,8.81,10.94h0l16.66-8.33V27.11Z"/></svg>