<svg id="Layer_1" data-name="Layer 1" xmlns="http://www.w3.org/2000/svg" viewBox="0 0 250 250"><defs><style>.cls-1{fill:#fff;}</style></defs><title>chocolate-box-logo-white</title><path class="cls-1" d="M1,1V249H249V1ZM215.6,124v.81c-3.24,3.34-7.06,5.17-10.57,7.8l0,.39a28.08,28.08,0,0,0,7.35,5.76l-.29.77a25.07,25.07,0,0,1-9.69-4.81c-3.3,1-7.31,1.65-10.79.6-2.25-.43-4.14-1.69-6.11-2.85-.77,2.36-1.48,4.82-2.18,7.23-1.83-.07-4,1.27-5.48-.17l-2.31-2.24a24.26,24.26,0,0,1-2.53,3.09c-1.62,1.47-4.08.66-6.12.73l-3.34-.42a31.09,31.09,0,0,1-3.23-4.78l-.42-1.12c.84-2.35,1.93-4.67,2.88-6.95l-.1-.11c-4.11,2.25-7.69,5.66-11.6,8.33L146.22,132c-.2-1.15,0-2.49-.17-3.65a21,21,0,0,1-7.59,2.32,19.78,19.78,0,0,1-3.91,4.95,27.31,27.31,0,0,1-9-.7l-2.77-2.32a111.7,111.7,0,0,1-12.4,2.56,67.44,67.44,0,0,1-6.68-6.85l.81-3.57c-.46-.4-1.23-.18-1.76-.08l-5.44,1.2-.21.28c.91,2.42,1.69,5,2.42,7.45a51,51,0,0,1-7.37,6.74L85.62,140c-1.82-1.7-4-3.06-5.48-5.07l-.84-5.3c-1.54.24-2.73,1.55-4.07,2.39A60.21,60.21,0,0,1,70,129.06l-.67-5.83c-.21-.42-.67-.42-1-.42a4.1,4.1,0,0,0-2.84,2.53l-.32,2.1-.46,8.78-3.79.63A44.58,44.58,0,0,1,59,131.09c-.22-.27-.54-.7-.85-.52-2.43,1.62-4,4.32-6.11,6.31-4.32-.34-8.89-.06-12.79-1.47-2.25-2.41-4.39-4.77-5.69-7.76a95.73,95.73,0,0,1,4.39-10.47c4.15,0,8,1.09,12,1.62l0,4.85a50.86,50.86,0,0,0-9.6-.67c-.31.29-.63.7-.52,1.09-.14,1,1,1.54,1.51,2.11a41,41,0,0,0,12.58,4.17.44.44,0,0,0,.56-.31c1-2.1,2.42-4,3-6.22L55.8,106.93c-.21-3.52-.81-6.85-.63-10.51,1.94.08,3.8-.07,5.73,0l-.53,13.07.07,10.82c.46.1.77-.5,1.2-.67,2-1.76,4.49-2.35,6.88-3.13,2.28.88,4.46,2,6.67,3.13a55.85,55.85,0,0,1,.88,7.76c.25.18.63,0,.91.15L82,121.68c2.07-.35,4.22-1.06,6.46-.56,2.22.32,4.54.46,6.44,1.55,3.79-.67,7.62-1.37,11.3-2.11.82-.21,1.41-1.1,2.19-1.48a23.27,23.27,0,0,1,4.91-2.17l5.83,2.17-2,4.7-4.85-1.54-.32.07-2.74,2.39c-.67,1-1.41,2-2,3a45,45,0,0,0,4.11,5.41,52.1,52.1,0,0,0,9.31-2.46l.22-.21a18.64,18.64,0,0,1,2.41-9.16c2.85-1,5.55-2.32,8.65-2.75,2.8,2.39,5.33,5.13,6.57,8.33.2.52-.15,1.94,1,1.34a39.63,39.63,0,0,0,6.61-1.62l.18-.39c.17-5,.31-10.47.55-15.66.39-4.75,1-9.39,1.55-14.06a69.62,69.62,0,0,1,12.3,1.87c.34,4.73.8,9.87.27,14.61l-1,4.21-7.48,8.36c-.07,1.06.35,2.22.31,3.34.18.25.56.08.81,0l9.84-6.75,6.31-3.37,2.05-.07c.1,1.51-.39,3.2-.07,4.75a44.44,44.44,0,0,0,4.85-.26c1.5,3.66,2.28,7.59,4.53,11l.31-.14a15.86,15.86,0,0,0,2.35-6,64.76,64.76,0,0,1,.53-13.81l-5.93-.74a26.51,26.51,0,0,1-.89-4.53l7.56.21.92-4.42h4.81l.59,4.56c3,.43,6.07.49,9,1.06l-.35,4.5c-2.63-.08-5.24-.18-7.8-.22a99.71,99.71,0,0,0,.32,13,13.93,13.93,0,0,0,1.19,3.54,25.82,25.82,0,0,0,5.55.21A19.05,19.05,0,0,1,200,124a77.36,77.36,0,0,1,7.06-9.45c2.11.64,4.6.46,6.89.49C214.75,117.92,215.85,120.7,215.6,124Z"/><path class="cls-1" d="M127.25,127.33a9.91,9.91,0,0,0,.07,5,5.68,5.68,0,0,0,5.63,1.05,4.51,4.51,0,0,0,1.72-2.52A10.28,10.28,0,0,1,127.25,127.33Z"/><path class="cls-1" d="M128.83,123.75a.79.79,0,0,0,.11.7,11.7,11.7,0,0,0,4.95,3.94,2.47,2.47,0,0,0,1.51.1,7.23,7.23,0,0,0-.52-4.15C133.23,123.15,130.8,123.33,128.83,123.75Z"/><path class="cls-1" d="M89.63,127.09a16.8,16.8,0,0,1,.21-4.39l-.21-.21a7.56,7.56,0,0,0-4.53.66c0,2.19-.14,4.47-.1,6.75l-.08.14A13.61,13.61,0,0,1,85,131.8c.24.67-.35,1.8.53,2.11,3.23.56,6.5-.14,9.76-.22.21-1.93-.73-3.47-1.26-5.13A23.73,23.73,0,0,1,89.63,127.09Z"/><path class="cls-1" d="M152.65,99.34l-2.52.07-.33.74c-1,3.78-1.19,7.94-1.47,12L149,122c.81-.06,1.37-1,2-1.44l1.41-3.55A73.09,73.09,0,0,0,155.14,100Z"/><path class="cls-1" d="M210.16,119.22c-2.39,2.84-2.74,6.68-4.08,10,.11.5.49.28.85.22a62.72,62.72,0,0,0,6.46-4.95,23,23,0,0,0-.29-4.72Z"/><path class="cls-1" d="M162.28,132.57l-.11.46c1.55,1.12,3.16,2,4.78,2.95.66.28,1.37.84,2.18.52,1.43-2.73,1.43-6.21,1.43-9.41a4.07,4.07,0,0,0-2.36.53A51.59,51.59,0,0,0,162.28,132.57Z"/></svg>