<svg id="Layer_1" data-name="Layer 1" xmlns="http://www.w3.org/2000/svg" viewBox="0 0 250 250"><defs><style>.cls-1{fill:#fff;}</style></defs><title>chocolate-word-logo</title><path class="cls-1" d="M246.66,119.86c-3.11,0-6.51.21-9.38-.66-3.83,4.07-6.61,8.52-9.62,12.87a26,26,0,0,0-1,9.9,36.12,36.12,0,0,1-7.56-.29,18.59,18.59,0,0,1-1.63-4.83A134.31,134.31,0,0,1,217,119.2c3.49,0,7,.19,10.62.29l.48-6.12c-3.93-.78-8.18-.86-12.2-1.44l-.81-6.22h-6.55l-1.26,6L197,111.45a35.46,35.46,0,0,0,1.21,6.17l8.08,1a87.76,87.76,0,0,0-.73,18.8,21.56,21.56,0,0,1-3.2,8.17l-.43.2c-3.06-4.59-4.11-10-6.17-14.93a64.18,64.18,0,0,1-6.6.35c-.44-2.11.24-4.42.09-6.47l-2.78.09-8.6,4.6-13.39,9.19c-.35.05-.87.28-1.11-.06.05-1.52-.52-3.1-.42-4.54l10.18-11.39,1.39-5.74c.71-6.45.09-13.44-.38-19.89a95.3,95.3,0,0,0-16.74-2.55c-.73,6.37-1.59,12.68-2.12,19.15-.33,7.07-.51,14.49-.75,21.33l-.25.53a51.31,51.31,0,0,1-9,2.2c-1.58.82-1.1-1.1-1.39-1.83-1.68-4.35-5.12-8.08-8.94-11.34-4.22.59-7.9,2.41-11.78,3.75-2.25,3.68-3.1,7.94-3.29,12.48l-.29.28A69.86,69.86,0,0,1,107,144.36a62,62,0,0,1-5.6-7.36c.81-1.34,1.82-2.67,2.73-4l3.74-3.26.43-.09,6.6,2.1,2.77-6.4-7.94-3a31.23,31.23,0,0,0-6.7,3c-1.06.52-1.86,1.72-3,2-5,1-10.24,1.95-15.4,2.87-2.58-1.49-5.74-1.68-8.76-2.11-3-.67-6,.29-8.79.76l-6.9,7.95c-.38-.14-.9,0-1.24-.2A74.67,74.67,0,0,0,57.73,126c-3-1.49-6-3.06-9.08-4.26-3.26,1.06-6.65,1.87-9.38,4.26-.57.24-1,1.06-1.63.92l-.09-14.74.72-17.8c-2.63,0-5.17.15-7.81,0-.23,5,.58,9.53.87,14.31l2.2,23c-.72,3.07-2.73,5.61-4,8.48a.62.62,0,0,1-.77.42c-6-1.15-11.86-2.73-17.13-5.68-.76-.78-2.24-1.54-2-2.88-.15-.53.28-1.1.7-1.48,4.46.1,9,0,13.07.91l0-6.6c-5.44-.73-10.76-2.25-16.41-2.21A129.73,129.73,0,0,0,1,137c1.77,4.07,4.68,7.28,7.75,10.56,5.31,1.92,11.53,1.54,17.41,2,2.82-2.72,5-6.4,8.33-8.6.42-.24.85.34,1.15.71.9,2.6,1.33,5.36,2.57,7.85l5.17-.86.63-12,.42-2.86a5.57,5.57,0,0,1,3.88-3.44c.48,0,1.1,0,1.39.56l.91,7.94c2.3,1.54,4.73,2.72,7.17,4,1.82-1.15,3.44-2.93,5.55-3.26l1.15,7.22c2,2.73,5,4.59,7.46,6.89l9,.52a67,67,0,0,0,10-9.18c-1-3.34-2.05-6.84-3.29-10.13l.28-.39L95.33,133c.72-.14,1.77-.43,2.4.1L96.63,138a91.94,91.94,0,0,0,9.09,9.33,153.52,153.52,0,0,0,16.88-3.49l3.78,3.16a37.08,37.08,0,0,0,12.19,1,26.73,26.73,0,0,0,5.32-6.74A28.38,28.38,0,0,0,154.23,138c.23,1.58,0,3.4.23,5l6.65,5.52c5.32-3.64,10.2-8.28,15.79-11.35l.14.15c-1.28,3.1-2.77,6.26-3.92,9.47l.58,1.53a42.45,42.45,0,0,0,4.39,6.51l4.55.57c2.78-.09,6.12,1,8.33-1a32.84,32.84,0,0,0,3.44-4.21l3.16,3.05c2.06,2,5,.15,7.46.24.95-3.29,1.91-6.64,3-9.85,2.68,1.58,5.26,3.3,8.32,3.87,4.74,1.44,10.2.58,14.69-.81,4.06,3,8.37,5.55,13.2,6.55l.39-1.05a38,38,0,0,1-10-7.84l0-.53c4.78-3.58,10-6.07,14.4-10.62v-1.1C249.29,127.53,247.79,123.74,246.66,119.86ZM85.15,145.22c-4.45.1-8.9,1.06-13.3.29-1.2-.42-.39-2-.72-2.86a17.49,17.49,0,0,0-.15-2.39l.11-.2c0-3.1.09-6.21.14-9.19a10.29,10.29,0,0,1,6.17-.9l.28.28a22.39,22.39,0,0,0-.28,6,32.74,32.74,0,0,0,6,2C84.15,140.49,85.43,142.6,85.15,145.22Zm51.24-.47a7.71,7.71,0,0,1-7.66-1.44c-.82-2-.44-4.63-.1-6.74a14,14,0,0,0,10.1,4.74A6.2,6.2,0,0,1,136.39,144.75Zm3.34-6.61a3.35,3.35,0,0,1-2.06-.14c-2.48-1.24-5.17-2.81-6.74-5.36a1.1,1.1,0,0,1-.15-.95c2.68-.58,6-.82,8.24.8A9.87,9.87,0,0,1,139.73,138.14ZM161,127.39c-.91.62-1.67,1.87-2.77,2l-.86-13.4c.38-5.59.63-11.25,2-16.41l.44-1,3.44-.1,3.39.86c-.51,8-1.43,15.93-3.72,23.24ZM185.66,149c-1.1.44-2.07-.33-3-.7-2.2-1.3-4.4-2.49-6.5-4l.14-.63A71.43,71.43,0,0,1,184.4,137a5.51,5.51,0,0,1,3.22-.73C187.62,140.59,187.62,145.32,185.66,149Zm60.28-16.34a84,84,0,0,1-8.8,6.74c-.48.09-1,.38-1.15-.29,1.81-4.54,2.3-9.76,5.54-13.63l4,.76A31.54,31.54,0,0,1,245.94,132.7Z"/></svg>