<svg id="Layer_1" data-name="Layer 1" xmlns="http://www.w3.org/2000/svg" viewBox="0 0 250 250"><defs><style>.cls-1{fill:#ec1c24;}.cls-2{fill:#fff;}</style></defs><title>chocolate-box-logo-color</title><rect class="cls-1" x="1" y="1" width="248" height="247.99"/><path class="cls-2" d="M213.92,115.07c-2.29,0-4.78.15-6.89-.49A77.36,77.36,0,0,0,200,124a19.05,19.05,0,0,0-.74,7.27,25.82,25.82,0,0,1-5.55-.21,13.93,13.93,0,0,1-1.19-3.54,99.71,99.71,0,0,1-.32-13c2.56,0,5.17.15,7.8.22l.35-4.5c-2.89-.57-6-.63-9-1.06l-.59-4.56H186L185,109.1l-7.56-.21a26.51,26.51,0,0,0,.89,4.53l5.93.74a64.76,64.76,0,0,0-.53,13.81,15.86,15.86,0,0,1-2.35,6l-.31.14c-2.25-3.37-3-7.3-4.53-11a44.44,44.44,0,0,1-4.85.26c-.32-1.55.17-3.24.07-4.75l-2.05.07-6.31,3.37-9.84,6.75c-.25,0-.63.21-.81,0,0-1.12-.38-2.28-.31-3.34l7.48-8.36,1-4.21c.53-4.74.07-9.88-.27-14.61a69.62,69.62,0,0,0-12.3-1.87c-.53,4.67-1.16,9.31-1.55,14.06-.24,5.19-.38,10.64-.55,15.66l-.18.39a39.63,39.63,0,0,1-6.61,1.62c-1.16.6-.81-.82-1-1.34-1.24-3.2-3.77-5.94-6.57-8.33-3.1.43-5.8,1.76-8.65,2.75a18.64,18.64,0,0,0-2.41,9.16l-.22.21a52.1,52.1,0,0,1-9.31,2.46,45,45,0,0,1-4.11-5.41c.59-1,1.33-2,2-3l2.74-2.39.32-.07,4.85,1.54,2-4.7-5.83-2.17a23.27,23.27,0,0,0-4.91,2.17c-.78.38-1.37,1.27-2.19,1.48-3.68.74-7.51,1.44-11.3,2.11-1.9-1.09-4.22-1.23-6.44-1.55-2.24-.5-4.39.21-6.46.56L77,127.52c-.28-.11-.66,0-.91-.15a55.85,55.85,0,0,0-.88-7.76c-2.21-1.1-4.39-2.25-6.67-3.13-2.39.78-4.88,1.37-6.88,3.13-.43.17-.74.77-1.2.67l-.07-10.82.53-13.07c-1.93,0-3.79.11-5.73,0-.18,3.66.42,7,.63,10.51l1.62,16.89c-.53,2.25-2,4.12-3,6.22a.44.44,0,0,1-.56.31,41,41,0,0,1-12.58-4.17c-.56-.57-1.65-1.13-1.51-2.11-.11-.39.21-.8.52-1.09a50.86,50.86,0,0,1,9.6.67l0-4.85c-4-.53-7.9-1.65-12-1.62a95.73,95.73,0,0,0-4.39,10.47c1.3,3,3.44,5.35,5.69,7.76,3.9,1.41,8.47,1.13,12.79,1.47,2.07-2,3.68-4.69,6.11-6.31.31-.18.63.25.85.52a45.23,45.23,0,0,0,1.89,5.77l3.79-.64.46-8.78.32-2.1a4.1,4.1,0,0,1,2.84-2.53c.35,0,.81,0,1,.42l.67,5.83A60.21,60.21,0,0,0,75.23,132c1.34-.84,2.53-2.15,4.07-2.39l.84,5.3c1.48,2,3.66,3.37,5.48,5.07l6.58.38a51,51,0,0,0,7.37-6.74c-.73-2.46-1.51-5-2.42-7.45l.21-.28,5.44-1.2c.53-.1,1.3-.32,1.76.08l-.81,3.57a67.44,67.44,0,0,0,6.68,6.85,111.7,111.7,0,0,0,12.4-2.56L125.6,135a27.31,27.31,0,0,0,9,.7,19.78,19.78,0,0,0,3.91-4.95,21,21,0,0,0,7.59-2.32c.17,1.16,0,2.5.17,3.65l4.88,4.05c3.91-2.67,7.49-6.08,11.6-8.33l.1.11c-.94,2.28-2,4.6-2.88,6.95l.42,1.12a31.09,31.09,0,0,0,3.23,4.78l3.34.42c2-.07,4.5.74,6.12-.73a24.26,24.26,0,0,0,2.53-3.09l2.31,2.24c1.52,1.44,3.65.1,5.48.17.7-2.41,1.41-4.87,2.18-7.23,2,1.16,3.86,2.42,6.11,2.85,3.48,1.05,7.49.42,10.79-.6a25.07,25.07,0,0,0,9.69,4.81l.29-.77a28.08,28.08,0,0,1-7.35-5.76l0-.39c3.51-2.63,7.33-4.46,10.57-7.8V124C215.85,120.7,214.75,117.92,213.92,115.07ZM95.32,133.69c-3.26.08-6.53.78-9.76.22-.88-.31-.29-1.44-.53-2.11a13.61,13.61,0,0,0-.11-1.76l.08-.14c0-2.28.06-4.56.1-6.75a7.56,7.56,0,0,1,4.53-.66l.21.21a16.8,16.8,0,0,0-.21,4.39,23.73,23.73,0,0,0,4.43,1.47C94.59,130.22,95.53,131.76,95.32,133.69Zm37.63-.35a5.68,5.68,0,0,1-5.63-1.05,9.91,9.91,0,0,1-.07-5,10.28,10.28,0,0,0,7.42,3.49A4.51,4.51,0,0,1,133,133.34Zm2.45-4.85a2.47,2.47,0,0,1-1.51-.1,11.7,11.7,0,0,1-4.95-3.94.79.79,0,0,1-.11-.7c2-.42,4.4-.6,6,.59A7.23,7.23,0,0,1,135.4,128.49Zm15.6-7.9c-.67.46-1.23,1.38-2,1.44l-.63-9.83c.28-4.11.46-8.27,1.47-12l.33-.74,2.52-.07,2.49.63A73.09,73.09,0,0,1,152.41,117Zm18.13,15.91c-.81.32-1.52-.24-2.18-.52-1.62-.95-3.23-1.83-4.78-2.95l.11-.46a51.59,51.59,0,0,1,5.92-4.95,4.07,4.07,0,0,1,2.36-.53C170.56,130.29,170.56,133.77,169.13,136.5Zm44.26-12a62.72,62.72,0,0,1-6.46,4.95c-.36.06-.74.28-.85-.22,1.34-3.33,1.69-7.17,4.08-10l2.94.56A23,23,0,0,1,213.39,124.5Z"/></svg>