<svg id="Layer_1" data-name="Layer 1" xmlns="http://www.w3.org/2000/svg" viewBox="0 0 250 250"><defs><style>.cls-1{fill:#fff;}</style></defs><title>mp-app-logo</title><path class="cls-1" d="M157.06,5.25A91.86,91.86,0,0,0,125,11a92,92,0,0,0-90.48,157.2,92,92,0,0,0,181.37-.35A91.94,91.94,0,0,0,157.06,5.25ZM33.27,150.3A79.9,79.9,0,0,1,93.11,17.47,80.78,80.78,0,0,1,108.69,19a91.77,91.77,0,0,0-43.56,78.2c0,1.09,0,2.17.05,3.24a91.91,91.91,0,0,0,43.94,75.22,80.35,80.35,0,0,1-16,1.61A79.55,79.55,0,0,1,46,161.86,80.39,80.39,0,0,1,33.27,150.3ZM77.81,88.78a79.92,79.92,0,0,1,94.71-.28,81.13,81.13,0,0,1,.49,8.87,79.91,79.91,0,0,1-47.83,73.19A79.91,79.91,0,0,1,77.35,97.37,78.79,78.79,0,0,1,77.81,88.78Zm127,72.79A79.91,79.91,0,0,1,49.54,178.26a91.94,91.94,0,0,0,135.3-78.59A79.55,79.55,0,0,1,205.25,153,81,81,0,0,1,204.79,161.57Zm12.29-11.27A91.8,91.8,0,0,0,183.6,81.81a92.73,92.73,0,0,0-14.74-9.92,92.08,92.08,0,0,0-87.36,0,80.1,80.1,0,0,1,43.68-47.72A79.19,79.19,0,0,1,141.4,19a81,81,0,0,1,15.84-1.57A79.9,79.9,0,0,1,217.08,150.3Z"/></svg>