<svg id="Layer_1" data-name="Layer 1" xmlns="http://www.w3.org/2000/svg" viewBox="0 0 250 250"><defs><style>.cls-1{fill:#fff;}</style></defs><title>nyt-t-logo</title><path class="cls-1" d="M168.1,1.8c14.47-2.49,27.09.8,37.13,10.45s10.09,22.2,5.66,34.7c-5.92,16.74-19.6,22.36-36.35,24.26,0,9.35.67,18.89-.19,28.29-.87,9.65,1.68,16.66,10.28,21.58,3.73,2.14,6.81,5.39,10.62,8.49-6.16,5-12.2,9.75-18,14.75a7.3,7.3,0,0,0-2.56,4.67c-.17,17.44-.1,34.88-.08,52.32a12,12,0,0,0,.44,2c15.44-10.45,26.42-24.11,34.61-42.06,0,5.52.49,9.65-.08,13.64C206,200,195.44,221.11,173.42,235c-56,35.42-125.45-.65-135.74-61.85-8.89-52.81,26-94,66.31-107.72a20.26,20.26,0,0,1,6.43-1C96,73.59,84.91,85.34,78.25,102.52L142.53,73.9c.13,1.81.3,3,.3,4.23,0,27.63,0,55.26.13,82.88,0,3.33-1.26,4.72-4.07,6.1C123,174.9,107.19,182.93,91,191.05A24.3,24.3,0,0,0,93,194c18.69,20.38,50.12,26,74.7,13.53,3.14-1.59,4.38-3.4,4.34-7-.21-16.63-.17-33.27,0-49.9a7.61,7.61,0,0,0-3.33-6.9c-5.76-4.39-11.29-9.1-17.42-14.09,6-4.86,11.6-9.57,17.41-14a7.61,7.61,0,0,0,3.35-6.88c-.2-12.42-.09-24.84-.09-37.13-14-3.41-27.77-6.68-41.47-10.11-16.25-4.06-32.38-8.64-48.72-12.29C70,46.52,61.37,52,58.93,62.3c-1.35,5.71.54,10.44,4,15.32a19,19,0,0,1-3.13-1C47.84,70.55,42,56,45.27,40.77c4.63-21.26,28-37.05,50.26-32.35C113,12.1,129.94,18,147.15,22.73c7.61,2.11,15.23,4.25,23,5.76a29.52,29.52,0,0,0,10.95-.39c5-1,8.44-4.22,9.24-9.38.86-5.48-2-9.68-6.58-11.88S173.72,3.55,168.1,1.8ZM102.73,94.73C99.86,96,97.39,97,94.94,98.06c-20.87,9.15-21.09,9.13-23.5,32.13C69.16,151.91,76.4,171,88.78,189c4-2,7.42-4,11.11-5.46,2.61-1,3.12-2.56,3.11-5.12-.08-26.6,0-53.21-.06-79.82C102.94,97.48,102.83,96.4,102.73,94.73Z"/></svg>