<svg id="Layer_1" data-name="Layer 1" xmlns="http://www.w3.org/2000/svg" viewBox="0 0 250 250"><defs><style>.cls-1{fill:#fff;}</style></defs><title>nyt-word-logo</title><path class="cls-1" d="M8.07,112v16.68a9.19,9.19,0,0,1,5.24,2.83l1.4-1.43a2.05,2.05,0,0,1,.24.16l-5.1,5.66A5,5,0,0,0,7,134.13a2.42,2.42,0,0,0-2,.45,2.18,2.18,0,0,0,.41,3.75,12.72,12.72,0,0,0,1.48.6A4.92,4.92,0,0,1,1.93,137a4.76,4.76,0,0,1-.23-5.32,5.7,5.7,0,0,1,4.83-2.93c.28,0,.56,0,.84-.08a1.49,1.49,0,0,0,.29-.06c0-2.31,0-4.63,0-6.94,0-.14-.27-.42-.36-.4a5.71,5.71,0,0,0-1.87.54c-.62.38-.47,1.21.25,2.08-1.75.06-2.83-1.82-3-3.36-.27-2.31,1.15-3.54,5-4.27a39.05,39.05,0,0,0-.06-5,2.65,2.65,0,0,0-2-2.13,1.28,1.28,0,0,0-1.57.6c-.26.44-.44.93-.65,1.38-.67-1.63.22-4.3,1.86-5.51a4.35,4.35,0,0,1,5.45.29,7.58,7.58,0,0,1,1.48,1.86c3.1,5.57,6.16,11.15,9.24,16.73.1.19.21.37.39.69V111.39a6.36,6.36,0,0,1-4.34-1.84L16,111.16l-.17-.08c0-.12,0-.29.1-.38,1.61-1.85,3.24-3.7,4.86-5.55,2.46,2.32,5.44,2,6.11-.87.79,1.09.56,3.16-.46,4.75a5.72,5.72,0,0,1-4.25,2.4v2.2q0,10.75,0,21.49c0,.27-.11.71-.29.78-.39.16-.69-.09-.91-.49Q15.2,124.78,9.37,114.17L8.18,112Z"/><path class="cls-1" d="M43.79,110.91l-.4.38a2.13,2.13,0,0,0,.07,3.35A13.57,13.57,0,0,0,45.34,116a4.1,4.1,0,0,1,2.11,3.92c-.11,3.22,0,6.45,0,9.67a1,1,0,0,0,.45.91c.86.65,1.7,1.34,2.52,2a1.21,1.21,0,0,0,.82-1.32q0-5.19,0-10.38a1.64,1.64,0,0,0-.61-1.4c-.35-.29-.64-.64-1-1l4.17-3.69,3.81,3.36a2.11,2.11,0,0,1-.27.36,3.27,3.27,0,0,0-1.19,3.06c.09,2.7,0,5.41,0,8.11a1.19,1.19,0,0,0,.5,1c1,.81,2,1.66,3,2.48.56-.14.66-.49.65-1,0-3.74,0-7.48,0-11.22a1.61,1.61,0,0,0-.64-1.44c-.34-.27-.63-.59-1-.94l4.19-3.84,3.88,3.2,1.61-1.32.14.16a1.77,1.77,0,0,1-.21.32c-.89.79-1.76,1.6-2.69,2.35a1.43,1.43,0,0,0-.55,1.27c0,3,0,6,0,9a.88.88,0,0,1-.47.88q-4,2.43-8,4.93a.76.76,0,0,1-1.06-.07c-1.31-1.09-2.67-2.13-4.06-3.23l-4.55,3.6-4.17-3.46-1.86,1.29-.17-.24a5.17,5.17,0,0,1,.83-.65,1.92,1.92,0,0,0,1.06-2c-.07-2.77,0-5.54,0-8.31A4.06,4.06,0,0,0,41,119a4.21,4.21,0,0,1-1.9-3.24,4.94,4.94,0,0,1,3.6-4.74c.34-.09.7-.13,1.05-.19Z"/><path class="cls-1" d="M35,132.36l4.74-3.68L40,129l-8.56,6.79-4.9-4.44-1.59,1.26-.15-.14c.09-.15.16-.36.29-.43,1.15-.59,1.3-1.55,1.27-2.74-.08-3,0-6,0-8.94a1,1,0,0,1,.35-.71C29.34,118,32,116.5,34.74,115l.27-.13L39,121.69l-3.21,2.38c-1.41,1-2.83,2.07-4.23,3.11a1.5,1.5,0,0,0-.17,1.74C32.54,130.07,33.76,131.19,35,132.36ZM31.2,117.52v9.41l3.86-2.83Z"/><path class="cls-1" d="M91.38,146.53a10.77,10.77,0,0,0,.93-1.17c.77-1.35,0-2.74-1.5-2.59-2,.2-3.93.58-5.88.95a27.94,27.94,0,0,1-5.84.72,5.08,5.08,0,0,1-2-9.83.73.73,0,0,0,.49-.77c0-3.52,0-7,0-10.58,0-.53-.22-.72-.67-.7a2,2,0,0,0-1.72.73c-.42.61-.26,1.07.62,1.93a2.67,2.67,0,0,1-2.37-1.39c-1.43-2.34,0-5.14,2.84-5.75.4-.08.8-.13,1.28-.21v-1.28c0-1.89,0-3.77,0-5.65a4.16,4.16,0,0,0-.37-1.68,1.59,1.59,0,0,0-2.77-.28,11,11,0,0,0-.75,1.34,3.89,3.89,0,0,1,.76-2.61,4.83,4.83,0,0,1,4.76-2.28c2.62.36,4,1.94,4,4.6q0,11.61,0,23.23v.81l3.11.62V105.56h.25v4l5.31-4.26,3.82,3.38c.7-.4,1.16-1.15,1.9-1.45l.15.22c-.49.42-1,.81-1.44,1.27a1.48,1.48,0,0,0-.41.86c0,7.11,0,14.22,0,21.33a13.54,13.54,0,0,1-.11,1.68c-.36,3.07-2.93,3.78-5,3.51-1.79-.23-3.54-.78-5.31-1.16a16.56,16.56,0,0,0-6.42-.44,2.66,2.66,0,0,0-2.4,1.88,1.92,1.92,0,0,0,1.51,2.5,18.37,18.37,0,0,0,3.92-.18c2.78-.38,5.54-.91,8.32-1.29a5.23,5.23,0,0,1,3.71.83,4.28,4.28,0,0,1,.61,6.8A6.62,6.62,0,0,1,91.38,146.53Zm-4.8-11.77A2.83,2.83,0,0,0,90.3,132c0-2.74,0-5.49,0-8.24,0-1-.28-1.39-1.28-1.69a1.82,1.82,0,0,0-2.44,1.77v10.93ZM87.78,109a4.84,4.84,0,0,1-.45.34,1.47,1.47,0,0,0-.76,1.54c0,2.14,0,4.28,0,6.42a1.73,1.73,0,0,0,1.76,1.91,1.71,1.71,0,0,0,2-1.73c0-1.08,0-2.16,0-3.24s.26-2.21-.15-3-1.5-1.44-2.29-2.14Zm-1.16,13.25a2.79,2.79,0,0,1,3.65-.07V119a2.75,2.75,0,0,1-3.65,0Z"/><path class="cls-1" d="M99.81,119.15l8.4-4.55,5.36,4.65,1.52-1.33.16.11c-.08.15-.13.36-.25.44-1.1.66-1.2,1.66-1.17,2.83.07,2.92,0,5.84,0,8.76a.92.92,0,0,1-.28.69c-2.82,1.6-5.65,3.17-8.54,4.78l-5-4.22-1.46,1.11-.17-.23c.32-.29.63-.6,1-.86a1.09,1.09,0,0,0,.46-1c0-3.53,0-7.06,0-10.58ZM109,132.93c0-4,0-7.76,0-11.54a1.11,1.11,0,0,0-.33-.64c-.76-.74-1.54-1.45-2.32-2.17l-1.54-1.4a1.75,1.75,0,0,0-.07.26q0,5.64,0,11.28a1,1,0,0,0,.32.64c.69.66,1.4,1.29,2.11,1.93Z"/><path class="cls-1" d="M130.64,108.46l6.51-4.58v4.85c0,6.81,0,13.62,0,20.43a1.71,1.71,0,0,0,.6,1.41c.38.34.72.74,1.12,1.16l1.3-1.1.17.11c-.06.13-.07.29-.16.37l-5.07,4.41-3.57-3.34-1.4,1.21-.18-.09a1.59,1.59,0,0,1,.23-.45c.59-.54,1.22-1,1.8-1.59a1.21,1.21,0,0,0,.34-.76q0-9.44,0-18.87a5.81,5.81,0,0,0-.07-1A2.26,2.26,0,0,0,130.64,108.46Z"/><path class="cls-1" d="M130.89,114.74c.41,2.55-1.43,5.23-3.65,5.44a4,4,0,0,1-3.3-1.59c0,.26,0,.43,0,.6,0,3.48,0,7,0,10.44a1.36,1.36,0,0,0,.56,1.21c.5.38,1,.82,1.46,1.26.64-.36,1.13-1,1.8-1.34l.15.25-5.38,4.5-4.09-3.71L117,133.12l-.19-.07c.06-.14.08-.33.18-.43.53-.51,1.11-1,1.62-1.49a1.11,1.11,0,0,0,.32-.71c0-3.14,0-6.27,0-9.41a1.34,1.34,0,0,0-.21-.71c-.46-.65-1-1.27-1.47-1.94l-1.62,1.38c0-.3,0-.48.1-.55l5-4.53,2.87,3.45,3.33-3.22C128.23,116,129.58,116.24,130.89,114.74Z"/><path class="cls-1" d="M143.29,114.43c2.29,1.78,2.94,1.78,5.69.07-.54,4.93-3.75,6.57-8.06,4.08-.29.24-.41.46-.15.85,2.69,4,5.36,8.07,8.08,12.17l1.65-1.41.15.08c-.05.14-.06.31-.16.39-1.8,1.59-3.6,3.16-5.45,4.78-.12-.15-.22-.28-.31-.41q-3.54-5.66-7.1-11.31a.85.85,0,0,1,0-1.13C139.55,119.9,141.4,117.18,143.29,114.43Z"/><path class="cls-1" d="M173.32,103.58a5.43,5.43,0,0,1,5,1.4c1.36,1.3,1.35,3,.76,4.64-.79,2.25-2.63,3-4.87,3.25,0,1.26.09,2.53,0,3.79a2.66,2.66,0,0,0,1.37,2.89,12.73,12.73,0,0,1,1.43,1.14c-.83.67-1.64,1.31-2.42,2a1,1,0,0,0-.34.62c0,2.34,0,4.67,0,7a1.22,1.22,0,0,0,.06.27,13,13,0,0,0,4.63-5.64,13.69,13.69,0,0,1,0,1.83,10.75,10.75,0,0,1-4.84,8.06,12,12,0,0,1-18.18-8.29,13,13,0,0,1,8.88-14.43,2.88,2.88,0,0,1,.86-.13,10.29,10.29,0,0,0-4.31,5.1l8.61-3.84c0,.25,0,.41,0,.57,0,3.7,0,7.4,0,11.1a.79.79,0,0,1-.54.82c-2.13,1-4.25,2.12-6.42,3.21.11.15.17.28.27.39a8.54,8.54,0,0,0,10,1.81.9.9,0,0,0,.58-.94q0-3.34,0-6.68a1,1,0,0,0-.44-.93c-.78-.59-1.52-1.22-2.34-1.89.8-.65,1.56-1.28,2.33-1.88a1,1,0,0,0,.45-.92c0-1.66,0-3.33,0-5-1.88-.46-3.72-.9-5.55-1.36-2.18-.54-4.34-1.15-6.53-1.64a2.34,2.34,0,0,0-3.05,1.76,2.39,2.39,0,0,0,.53,2,2.92,2.92,0,0,1-.42-.13,4.22,4.22,0,0,1-1.94-4.8,5.87,5.87,0,0,1,6.73-4.34c2.33.5,4.61,1.28,6.91,1.92,1,.28,2,.57,3.08.77a4,4,0,0,0,1.47-.05,1.5,1.5,0,0,0,.35-2.85A15.55,15.55,0,0,0,173.32,103.58ZM164.56,116l-1,.45c-2.8,1.23-2.83,1.22-3.15,4.3a11.52,11.52,0,0,0,2.32,7.87c.53-.26,1-.53,1.49-.73s.42-.34.42-.68q0-5.36,0-10.69C164.59,116.39,164.58,116.25,164.56,116Z"/><path class="cls-1" d="M204.17,136.05l-3.43-3.86a1,1,0,0,1,.07-.16,2.31,2.31,0,0,0,.91-2.25c-.05-2.43,0-4.85,0-7.27a1.89,1.89,0,0,0-.38-1c-.7-.88-1.46-1.71-2.21-2.58a1.6,1.6,0,0,0-1,1.6c.06,3.11,0,6.23,0,9.35a1.82,1.82,0,0,0,.65,1.58,9.4,9.4,0,0,1,.84.88l-3.69,3.94L192.17,132c0-.05,0-.08,0-.09,1.08-.64,1.13-1.66,1.1-2.79-.06-2.33,0-4.67,0-7a1.42,1.42,0,0,0-.32-.86c-.63-.77-1.31-1.49-2-2.28l-1.73,1.44c0-.27,0-.45.08-.51,1.65-1.46,3.31-2.9,5-4.37l3.58,3.78,4.86-3.79,3.56,3.83,5-4,3.5,3.92,1.94-1.27s.08.08.17.18c-.51.4-1,.77-1.51,1.19a1,1,0,0,0-.32.64q0,4.86,0,9.73a.93.93,0,0,0,.21.57c.53.63,1.09,1.23,1.66,1.87l1.34-1.1.19.24-5.2,4.82-3.95-4.28c1.11-.55,1-1.55,1-2.53,0-2.31,0-4.63,0-6.94a1.6,1.6,0,0,0-.36-1c-.73-.88-1.52-1.71-2.31-2.58a1.64,1.64,0,0,0-1.08,1.63c.08,3.24.06,6.48.06,9.72a1.29,1.29,0,0,0,.44,1.08c.34.3.62.66.92,1Z"/><path class="cls-1" d="M243.43,115.28c1,1,2,1.84,3.6,1.27.84-.31,1.2-.86,1.35-2a2.77,2.77,0,0,1,.28,2.29,10.45,10.45,0,0,1-2.06,3.93c-.27.36-.56.71-.86,1.09,1,.8,1.95,1.55,2.88,2.36a1.09,1.09,0,0,1,.36.74q0,3,0,6.1a.91.91,0,0,1-.32.67c-2.39,1.47-4.8,2.92-7.21,4.38a20.14,20.14,0,0,0-1.67-1.23,1.85,1.85,0,0,0-2.19.08,1.2,1.2,0,0,0-.18,1.91,9.06,9.06,0,0,0,1.08.86,3.69,3.69,0,0,1-3.38-2.69,3.93,3.93,0,0,1,.57-3.52c.67-.93,1.44-1.77,2.2-2.63a10.41,10.41,0,0,1,1-.87c-1-.88-1.84-1.66-2.68-2.49a1.49,1.49,0,0,1-.41-.93c-.05-1.45,0-2.9,0-4.35a.86.86,0,0,1,.3-.62C238.47,118.16,240.91,116.75,243.43,115.28Zm-1,9.64c-2.22,2.27-4.77,4.15-6.42,6.88a4.7,4.7,0,0,1,4.55-1.76c1.84.38,2.93,1.66,3.86,3.38,0-2.3,0-4.4,0-6.49a.79.79,0,0,0-.24-.49C243.68,126,243.12,125.48,242.48,124.92Zm-.32-.2a22.62,22.62,0,0,0,5-5.5,4,4,0,0,1-3.72,1,5.91,5.91,0,0,1-3.13-2.55c0,1.83,0,3.48,0,5.14a.59.59,0,0,0,.17.4C241,123.74,241.57,124.21,242.16,124.72Z"/><path class="cls-1" d="M229.2,115.36l4,6.89-5.3,3.9-2.14,1.57a1.48,1.48,0,0,0-.16,1.79c1.19,1.12,2.4,2.24,3.65,3.4l1.63-1.27c.53-.41,1-.84,1.59-1.24a10.5,10.5,0,0,1,1.54-1.13l.17.23-.71.59c-2.44,1.94-4.89,3.86-7.32,5.81-.4.33-.64.3-1-.05-1.44-1.34-2.91-2.64-4.4-4l-1.61,1.23-.15-.16c.12-.15.21-.36.37-.45a2.39,2.39,0,0,0,1.21-2.45c-.09-3,0-6.1,0-9.15a.8.8,0,0,1,.5-.84c2.43-1.35,4.84-2.74,7.26-4.13Zm.07,9.29-3.86-6.55v9.37Z"/><path class="cls-1" d="M190.92,131.75l-5,4.43-3.42-3.94-1.59,1.32-.2-.24a6.45,6.45,0,0,1,.82-.75,1.58,1.58,0,0,0,.71-1.53c0-3,0-6.06,0-9.08a1.72,1.72,0,0,0-.33-.93c-.56-.71-1.17-1.39-1.79-2.12L178.79,120l-.14-.07c0-.13,0-.3.14-.38,1.53-1.36,3.08-2.71,4.67-4.1l3.6,4.18,1.7-1.42a1.19,1.19,0,0,1,.05.42.49.49,0,0,1-.23.22c-1.28.7-1.45,1.82-1.4,3.16.1,2.53,0,5.06,0,7.59a1.69,1.69,0,0,0,.49,1.33c.54.54,1,1.16,1.52,1.73.61-.3.93-1,1.58-1.14Z"/><path class="cls-1" d="M184.42,114.4l-3-3.37,3.75-3.45,3.07,3.39Z"/></svg>