<?xml version="1.0" encoding="utf-8"?>
<!-- Generator: Adobe Illustrator 23.0.6, SVG Export Plug-In . SVG Version: 6.00 Build 0)  -->
<svg version="1.1" id="Layer_1" xmlns="http://www.w3.org/2000/svg" xmlns:xlink="http://www.w3.org/1999/xlink" x="0px" y="0px"
	 viewBox="0 0 250 250" style="enable-background:new 0 0 250 250;" xml:space="preserve">
<style type="text/css">
	.st0{fill:#FFFFFF;}
</style>
<path class="st0" d="M247.5,240.5c1.9,1.9,1.9,5.1,0,7c-1,1-2.2,1.5-3.5,1.5c-1.3,0-2.5-0.5-3.5-1.5L209,216.1
	c-22.1,20.4-51.6,32.9-84,32.9c-23.9,0-47.2-6.8-67.2-19.8c-2.3-1.5-3-4.6-1.5-6.9c1.5-2.3,4.6-3,6.9-1.5
	c18.4,11.9,39.8,18.2,61.8,18.2c29.7,0,56.7-11.4,77-30l-80.5-80.5c-1.9-1.9-1.9-5.1,0-7s5.1-1.9,7,0l80.5,80.5
	c18.6-20.3,30-47.4,30-77c0-22-6.3-43.4-18.2-61.8c-1.5-2.3-0.8-5.4,1.5-6.9c2.3-1.5,5.4-0.8,6.9,1.5c12.9,20,19.8,43.2,19.8,67.2
	c0,32.4-12.5,61.9-32.9,84L247.5,240.5z M10.9,125C10.9,62.1,62.1,10.9,125,10.9c30.5,0,59.1,11.9,80.6,33.4c1.9,1.9,5.1,1.9,7,0
	s1.9-5.1,0-7C189.2,13.9,158.1,1,125,1C56.6,1,1,56.6,1,125c0,33.1,12.9,64.3,36.3,87.7c1,1,2.2,1.5,3.5,1.5s2.5-0.5,3.5-1.5
	c1.9-1.9,1.9-5.1,0-7C22.8,184.1,10.9,155.5,10.9,125z M184.6,72.4c1.9-1.9,1.9-5.1,0-7c-15.9-15.9-37.1-24.7-59.6-24.7
	c-46.5,0-84.3,37.8-84.3,84.3c0,22.5,8.8,43.7,24.7,59.6c1,1,2.2,1.5,3.5,1.5c1.3,0,2.5-0.5,3.5-1.5c1.9-1.9,1.9-5.1,0-7
	c-14.1-14.1-21.8-32.7-21.8-52.6c0-41,33.4-74.4,74.4-74.4c19.9,0,38.6,7.7,52.6,21.8C179.5,74.3,182.7,74.3,184.6,72.4z M125,90.3
	c9.3,0,18,3.6,24.6,10.2c1.9,1.9,5.1,1.9,7,0s1.9-5.1,0-7c-8.4-8.4-19.6-13.1-31.6-13.1c-24.6,0-44.6,20-44.6,44.6
	c0,11.9,4.6,23.1,13.1,31.6c1,1,2.2,1.5,3.5,1.5c1.3,0,2.5-0.5,3.5-1.5c1.9-1.9,1.9-5.1,0-7c-6.6-6.6-10.2-15.3-10.2-24.6
	C90.3,105.9,105.9,90.3,125,90.3z"/>
</svg>
